<svg width="301pt" height="620pt" xmlns="http://www.w3.org/2000/svg" xmlns:xlink="http://www.w3.org/1999/xlink">
<g id="graph1" class="graph" transform="scale(1 1) rotate(0) translate(4 616)">
<title>_anonymous_0</title>
<polygon fill="white" stroke="white" points="-4,5 -4,-616 298,-616 298,5 -4,5"></polygon>
<!-- n_67 -->
<g id="node1" class="node"><title>n_67</title>
<polygon fill="#ccd1ff" stroke="#ccd1ff" points="241.101,-612 104.899,-612 104.899,-576 241.101,-576 241.101,-612"></polygon>
<text text-anchor="middle" x="173" y="-589.8" style="font-size:11pt">DEF def_method_for</text>
</g>
<!-- n_69 -->
<g id="node3" class="node"><title>n_69</title>
<polygon fill="#bcc1eb" stroke="#bcc1eb" points="256.528,-540 89.4722,-540 89.4722,-504 256.528,-504 256.528,-540"></polygon>
<text text-anchor="middle" x="173" y="-517.8" style="font-size:11pt">FOR List(i &lt;- List(4, 5, 6))</text>
</g>
<!-- n_67&#45;&gt;n_69 -->
<g id="edge2" class="edge"><title>n_67-&gt;n_69</title>
<path fill="none" stroke="black" d="M173,-575.697C173,-567.983 173,-558.712 173,-550.112"></path>
<polygon fill="black" stroke="black" points="176.5,-550.104 173,-540.104 169.5,-550.104 176.5,-550.104"></polygon>
</g>
<!-- n_70 -->
<g id="node6" class="node"><title>n_70</title>
<polygon fill="#9ea2c5" stroke="#9ea2c5" points="173,-468 119,-468 119,-432 173,-432 173,-468"></polygon>
<text text-anchor="middle" x="146" y="-445.8" style="font-size:11pt">println</text>
</g>
<!-- n_69&#45;&gt;n_70 -->
<g id="edge4" class="edge"><title>n_69-&gt;n_70</title>
<path fill="none" stroke="black" d="M166.326,-503.697C163.285,-495.813 159.617,-486.304 156.239,-477.546"></path>
<polygon fill="black" stroke="black" points="159.462,-476.175 152.597,-468.104 152.931,-478.694 159.462,-476.175"></polygon>
</g>
<!-- n_68 -->
<g id="node4" class="node"><title>n_68</title>
<polygon fill="#ccd1ff" stroke="#ccd1ff" points="246.3,-36 77.6999,-36 77.6999,0 246.3,0 246.3,-36"></polygon>
<text text-anchor="middle" x="162" y="-13.8" style="font-size:11pt">END DEF def_method_for</text>
</g>
<!-- n_71 -->
<g id="node8" class="node"><title>n_71</title>
<polygon fill="#9ea2c5" stroke="#9ea2c5" points="173,-396 119,-396 119,-360 173,-360 173,-396"></polygon>
<text text-anchor="middle" x="146" y="-373.8" style="font-size:11pt">IF</text>
</g>
<!-- n_70&#45;&gt;n_71 -->
<g id="edge6" class="edge"><title>n_70-&gt;n_71</title>
<path fill="none" stroke="black" d="M146,-431.697C146,-423.983 146,-414.712 146,-406.112"></path>
<polygon fill="black" stroke="black" points="149.5,-406.104 146,-396.104 142.5,-406.104 149.5,-406.104"></polygon>
</g>
<!-- n_73 -->
<g id="node10" class="node"><title>n_73</title>
<polygon fill="#8e92b2" stroke="#8e92b2" points="159,-324 105,-324 105,-288 159,-288 159,-324"></polygon>
<text text-anchor="middle" x="132" y="-301.8" style="font-size:11pt">i == 5</text>
</g>
<!-- n_71&#45;&gt;n_73 -->
<g id="edge8" class="edge"><title>n_71-&gt;n_73</title>
<path fill="none" stroke="black" d="M142.539,-359.697C140.997,-351.983 139.142,-342.712 137.422,-334.112"></path>
<polygon fill="black" stroke="black" points="140.814,-333.224 135.421,-324.104 133.95,-334.597 140.814,-333.224"></polygon>
</g>
<!-- n_72 -->
<g id="node11" class="node"><title>n_72</title>
<polygon fill="#9ea2c5" stroke="#9ea2c5" points="200.133,-252 37.8674,-252 37.8674,-216 200.133,-216 200.133,-252"></polygon>
<text text-anchor="middle" x="119" y="-229.8" style="font-size:11pt">IF-BRANCHING-POINT</text>
</g>
<!-- n_73&#45;&gt;n_72 -->
<g id="edge14" class="edge"><title>n_73-&gt;n_72</title>
<path fill="none" stroke="black" d="M128.787,-287.697C127.354,-279.983 125.632,-270.712 124.035,-262.112"></path>
<polygon fill="black" stroke="black" points="127.444,-261.297 122.177,-252.104 120.561,-262.575 127.444,-261.297"></polygon>
</g>
<!-- n_75 -->
<g id="node13" class="node"><title>n_75</title>
<polygon fill="#8e92b2" stroke="#8e92b2" points="168.509,-108 -0.509315,-108 -0.509315,-72 168.509,-72 168.509,-108"></polygon>
<text text-anchor="middle" x="84" y="-85.8" style="font-size:11pt">RETURN "List contains 5"</text>
</g>
<!-- n_72&#45;&gt;n_75 -->
<g id="edge10" class="edge"><title>n_72-&gt;n_75</title>
<path fill="none" stroke="black" d="M114.778,-215.871C108.787,-191.564 97.7581,-146.819 90.6582,-118.013"></path>
<polygon fill="black" stroke="black" points="94.0283,-117.061 88.2368,-108.189 87.2317,-118.736 94.0283,-117.061"></polygon>
</g>
<!-- n_74 -->
<g id="node15" class="node"><title>n_74</title>
<polygon fill="#9ea2c5" stroke="#9ea2c5" points="266.206,-180 189.794,-180 189.794,-144 266.206,-144 266.206,-180"></polygon>
<text text-anchor="middle" x="228" y="-157.8" style="font-size:11pt">AFTER IF</text>
</g>
<!-- n_72&#45;&gt;n_74 -->
<g id="edge12" class="edge"><title>n_72-&gt;n_74</title>
<path fill="none" stroke="black" d="M145.664,-215.876C159.784,-206.808 177.311,-195.552 192.561,-185.759"></path>
<polygon fill="black" stroke="black" points="194.71,-188.538 201.233,-180.19 190.927,-182.648 194.71,-188.538"></polygon>
</g>
<!-- n_75&#45;&gt;n_68 -->
<g id="edge20" class="edge"><title>n_75-&gt;n_68</title>
<path fill="none" stroke="black" d="M103.281,-71.6966C112.915,-63.0503 124.729,-52.4486 135.227,-43.027"></path>
<polygon fill="black" stroke="black" points="137.836,-45.3883 142.941,-36.1043 133.161,-40.1786 137.836,-45.3883"></polygon>
</g>
<!-- n_74&#45;&gt;n_69 -->
<g id="edge16" class="edge"><title>n_74-&gt;n_69</title>
<path fill="none" stroke="black" d="M228,-180.049C228,-206.708 228,-259.885 228,-305 228,-379 228,-379 228,-379 228,-421.992 205.807,-467.663 189.616,-495.262"></path>
<polygon fill="black" stroke="black" points="186.573,-493.53 184.396,-503.899 192.564,-497.151 186.573,-493.53"></polygon>
</g>
<!-- n_76 -->
<g id="node19" class="node"><title>n_76</title>
<polygon fill="#adb1d8" stroke="#adb1d8" points="293.244,-108 186.756,-108 186.756,-72 293.244,-72 293.244,-108"></polygon>
<text text-anchor="middle" x="240" y="-85.8" style="font-size:11pt">"Default return"</text>
</g>
<!-- n_74&#45;&gt;n_76 -->
<g id="edge18" class="edge"><title>n_74-&gt;n_76</title>
<path fill="none" stroke="black" d="M230.966,-143.697C232.289,-135.983 233.878,-126.712 235.352,-118.112"></path>
<polygon fill="black" stroke="black" points="238.828,-118.552 237.068,-108.104 231.928,-117.369 238.828,-118.552"></polygon>
</g>
<!-- n_76&#45;&gt;n_68 -->
<g id="edge22" class="edge"><title>n_76-&gt;n_68</title>
<path fill="none" stroke="black" d="M220.719,-71.6966C211.085,-63.0503 199.271,-52.4486 188.773,-43.027"></path>
<polygon fill="black" stroke="black" points="190.839,-40.1786 181.059,-36.1043 186.164,-45.3883 190.839,-40.1786"></polygon>
</g>
</g>
</svg>