<svg width="286pt" height="764pt" viewBox="0.00 0.00 286.00 764.00" xmlns="http://www.w3.org/2000/svg" xmlns:xlink="http://www.w3.org/1999/xlink">
<g id="graph1" class="graph" transform="scale(1 1) rotate(0) translate(4 760)">
<title>_anonymous_0</title>
<polygon fill="white" stroke="white" points="-4,5 -4,-760 283,-760 283,5 -4,5"></polygon>
<!-- n_27 -->
<g id="node1" class="node"><title>n_27</title>
<polygon fill="#ccd1ff" stroke="#ccd1ff" points="206.28,-756 39.7199,-756 39.7199,-720 206.28,-720 206.28,-756"></polygon>
<text text-anchor="middle" x="123" y="-733.8" font-family="arial" font-size="14.00">DEF def_method_match</text>
</g>
<!-- n_29 -->
<g id="node3" class="node"><title>n_29</title>
<polygon fill="#bcc1eb" stroke="#bcc1eb" points="154.971,-684 91.0294,-684 91.0294,-648 154.971,-648 154.971,-684"></polygon>
<text text-anchor="middle" x="123" y="-661.8" font-family="arial" font-size="14.00">val i = 1</text>
</g>
<!-- n_27&#45;&gt;n_29 -->
<g id="edge2" class="edge"><title>n_27-&gt;n_29</title>
<path fill="none" stroke="black" d="M123,-719.697C123,-711.983 123,-702.712 123,-694.112"></path>
<polygon fill="black" stroke="black" points="126.5,-694.104 123,-684.104 119.5,-694.104 126.5,-694.104"></polygon>
</g>
<!-- n_30 -->
<g id="node6" class="node"><title>n_30</title>
<polygon fill="#bcc1eb" stroke="#bcc1eb" points="159.071,-612 86.9288,-612 86.9288,-576 159.071,-576 159.071,-612"></polygon>
<text text-anchor="middle" x="123" y="-589.8" font-family="arial" font-size="14.00">MATCH i</text>
</g>
<!-- n_29&#45;&gt;n_30 -->
<g id="edge4" class="edge"><title>n_29-&gt;n_30</title>
<path fill="none" stroke="black" d="M123,-647.697C123,-639.983 123,-630.712 123,-622.112"></path>
<polygon fill="black" stroke="black" points="126.5,-622.104 123,-612.104 119.5,-622.104 126.5,-622.104"></polygon>
</g>
<!-- n_28 -->
<g id="node4" class="node"><title>n_28</title>
<polygon fill="#ccd1ff" stroke="#ccd1ff" points="206.359,-36 5.6408,-36 5.6408,0 206.359,0 206.359,-36"></polygon>
<text text-anchor="middle" x="106" y="-13.8" font-family="arial" font-size="14.00">END DEF def_method_match</text>
</g>
<!-- n_32 -->
<g id="node8" class="node"><title>n_32</title>
<polygon fill="#adb1d8" stroke="#adb1d8" points="54,-468 0,-468 0,-432 54,-432 54,-468"></polygon>
<text text-anchor="middle" x="27" y="-445.8" font-family="arial" font-size="14.00">"One"</text>
</g>
<!-- n_30&#45;&gt;n_32 -->
<g id="edge6" class="edge"><title>n_30-&gt;n_32</title>
<path fill="none" stroke="black" d="M111.311,-575.825C104.261,-565.456 95.1041,-551.976 87,-540 72.5927,-518.709 56.2895,-494.52 44.3175,-476.739"></path>
<polygon fill="black" stroke="black" points="46.9724,-474.415 38.4847,-468.074 41.1654,-478.324 46.9724,-474.415"></polygon>
</g>
<!-- n_33 -->
<g id="node10" class="node"><title>n_33</title>
<polygon fill="#9ea2c5" stroke="#9ea2c5" points="150,-540 96,-540 96,-504 150,-504 150,-540"></polygon>
<text text-anchor="middle" x="123" y="-517.8" font-family="arial" font-size="14.00">IF</text>
</g>
<!-- n_30&#45;&gt;n_33 -->
<g id="edge8" class="edge"><title>n_30-&gt;n_33</title>
<path fill="none" stroke="black" d="M123,-575.697C123,-567.983 123,-558.712 123,-550.112"></path>
<polygon fill="black" stroke="black" points="126.5,-550.104 123,-540.104 119.5,-550.104 126.5,-550.104"></polygon>
</g>
<!-- n_39 -->
<g id="node12" class="node"><title>n_39</title>
<polygon fill="#adb1d8" stroke="#adb1d8" points="278.038,-396 223.962,-396 223.962,-360 278.038,-360 278.038,-396"></polygon>
<text text-anchor="middle" x="251" y="-373.8" font-family="arial" font-size="14.00">"Tree"</text>
</g>
<!-- n_30&#45;&gt;n_39 -->
<g id="edge10" class="edge"><title>n_30-&gt;n_39</title>
<path fill="none" stroke="black" d="M135.347,-575.559C142.462,-565.329 151.462,-552.079 159,-540 188.037,-493.468 219.174,-437.561 236.754,-405.369"></path>
<polygon fill="black" stroke="black" points="240.051,-406.632 241.757,-396.176 233.902,-403.286 240.051,-406.632"></polygon>
</g>
<!-- n_31 -->
<g id="node13" class="node"><title>n_31</title>
<polygon fill="#bcc1eb" stroke="#bcc1eb" points="163.156,-108 48.8436,-108 48.8436,-72 163.156,-72 163.156,-108"></polygon>
<text text-anchor="middle" x="106" y="-85.8" font-family="arial" font-size="14.00">AFTER MATCH</text>
</g>
<!-- n_32&#45;&gt;n_31 -->
<g id="edge14" class="edge"><title>n_32-&gt;n_31</title>
<path fill="none" stroke="black" d="M24.1669,-431.566C20.076,-404.836 13,-352.086 13,-307 13,-307 13,-307 13,-233 13,-185.322 50.1451,-141.192 77.4847,-115.168"></path>
<polygon fill="black" stroke="black" points="79.9267,-117.677 84.8969,-108.32 75.1766,-112.535 79.9267,-117.677"></polygon>
</g>
<!-- n_35 -->
<g id="node17" class="node"><title>n_35</title>
<polygon fill="#8e92b2" stroke="#8e92b2" points="150,-468 96,-468 96,-432 150,-432 150,-468"></polygon>
<text text-anchor="middle" x="123" y="-445.8" font-family="arial" font-size="14.00">true</text>
</g>
<!-- n_33&#45;&gt;n_35 -->
<g id="edge16" class="edge"><title>n_33-&gt;n_35</title>
<path fill="none" stroke="black" d="M123,-503.697C123,-495.983 123,-486.712 123,-478.112"></path>
<polygon fill="black" stroke="black" points="126.5,-478.104 123,-468.104 119.5,-478.104 126.5,-478.104"></polygon>
</g>
<!-- n_39&#45;&gt;n_31 -->
<g id="edge30" class="edge"><title>n_39-&gt;n_31</title>
<path fill="none" stroke="black" d="M246.392,-359.881C235.135,-319.872 203.628,-218.026 156,-144 149.436,-133.797 140.772,-123.801 132.504,-115.287"></path>
<polygon fill="black" stroke="black" points="134.959,-112.793 125.402,-108.22 130.022,-117.755 134.959,-112.793"></polygon>
</g>
<!-- n_31&#45;&gt;n_28 -->
<g id="edge12" class="edge"><title>n_31-&gt;n_28</title>
<path fill="none" stroke="black" d="M106,-71.6966C106,-63.9827 106,-54.7125 106,-46.1124"></path>
<polygon fill="black" stroke="black" points="109.5,-46.1043 106,-36.1043 102.5,-46.1044 109.5,-46.1043"></polygon>
</g>
<!-- n_34 -->
<g id="node18" class="node"><title>n_34</title>
<polygon fill="#9ea2c5" stroke="#9ea2c5" points="204.898,-396 41.1023,-396 41.1023,-360 204.898,-360 204.898,-396"></polygon>
<text text-anchor="middle" x="123" y="-373.8" font-family="arial" font-size="14.00">IF-BRANCHING-POINT</text>
</g>
<!-- n_35&#45;&gt;n_34 -->
<g id="edge22" class="edge"><title>n_35-&gt;n_34</title>
<path fill="none" stroke="black" d="M123,-431.697C123,-423.983 123,-414.712 123,-406.112"></path>
<polygon fill="black" stroke="black" points="126.5,-406.104 123,-396.104 119.5,-406.104 126.5,-406.104"></polygon>
</g>
<!-- n_37 -->
<g id="node20" class="node"><title>n_37</title>
<polygon fill="#7f829f" stroke="#7f829f" points="102,-324 48,-324 48,-288 102,-288 102,-324"></polygon>
<text text-anchor="middle" x="75" y="-301.8" font-family="arial" font-size="14.00">"Two"</text>
</g>
<!-- n_34&#45;&gt;n_37 -->
<g id="edge18" class="edge"><title>n_34-&gt;n_37</title>
<path fill="none" stroke="black" d="M111.135,-359.697C105.497,-351.474 98.6457,-341.483 92.4313,-332.421"></path>
<polygon fill="black" stroke="black" points="95.2706,-330.372 86.7287,-324.104 89.4975,-334.331 95.2706,-330.372"></polygon>
</g>
<!-- n_36 -->
<g id="node22" class="node"><title>n_36</title>
<polygon fill="#9ea2c5" stroke="#9ea2c5" points="145.164,-252 66.8357,-252 66.8357,-216 145.164,-216 145.164,-252"></polygon>
<text text-anchor="middle" x="106" y="-229.8" font-family="arial" font-size="14.00">AFTER IF</text>
</g>
<!-- n_34&#45;&gt;n_36 -->
<g id="edge20" class="edge"><title>n_34-&gt;n_36</title>
<path fill="none" stroke="black" d="M120.949,-359.871C118.052,-335.67 112.729,-291.211 109.279,-262.393"></path>
<polygon fill="black" stroke="black" points="112.722,-261.702 108.058,-252.189 105.771,-262.534 112.722,-261.702"></polygon>
</g>
<!-- n_37&#45;&gt;n_36 -->
<g id="edge26" class="edge"><title>n_37-&gt;n_36</title>
<path fill="none" stroke="black" d="M82.6629,-287.697C86.1917,-279.728 90.4559,-270.1 94.3687,-261.264"></path>
<polygon fill="black" stroke="black" points="97.5761,-262.665 98.4252,-252.104 91.1757,-259.831 97.5761,-262.665"></polygon>
</g>
<!-- n_38 -->
<g id="node25" class="node"><title>n_38</title>
<polygon fill="#9ea2c5" stroke="#9ea2c5" points="147.136,-180 64.8643,-180 64.8643,-144 147.136,-144 147.136,-180"></polygon>
<text text-anchor="middle" x="106" y="-157.8" font-family="arial" font-size="14.00">"Twooooo"</text>
</g>
<!-- n_36&#45;&gt;n_38 -->
<g id="edge24" class="edge"><title>n_36-&gt;n_38</title>
<path fill="none" stroke="black" d="M106,-215.697C106,-207.983 106,-198.712 106,-190.112"></path>
<polygon fill="black" stroke="black" points="109.5,-190.104 106,-180.104 102.5,-190.104 109.5,-190.104"></polygon>
</g>
<!-- n_38&#45;&gt;n_31 -->
<g id="edge28" class="edge"><title>n_38-&gt;n_31</title>
<path fill="none" stroke="black" d="M106,-143.697C106,-135.983 106,-126.712 106,-118.112"></path>
<polygon fill="black" stroke="black" points="109.5,-118.104 106,-108.104 102.5,-118.104 109.5,-118.104"></polygon>
</g>
</g>
</svg>